# xmcd CD database file generated by Grip 2.92
# 
# Track frame offsets:
#       150
#       20101
#       44527
#       74834
#       106187
#       126235
#       151057
#       180179
#       196411
#       229645
# 
# Disc length: 3411 seconds
# 
# Revision: 3
# Processed by: cddbd v1.4b41PL1 Copyright (c) Steve Scherf et al.
# Submitted via: Grip 2.92
# 
DISCID=830d510a
DTITLE=The Nerak Roth Patterson Band - Back in the Day...
DYEAR=1900
DGENRE=
TTITLE0=Tenderly
TTITLE1=Every Shade of Blue
TTITLE2=Loves Pretty Women
TTITLE3=Trouble
TTITLE4=Can't Take My Blues
TTITLE5=Climbin' the Walls
TTITLE6=Devil Took My Happy Home
TTITLE7=You're His
TTITLE8=Soul Food Dinner
TTITLE9=Rock Me Baby
EXTD=
EXTT0=
EXTT1=
EXTT2=
EXTT3=
EXTT4=
EXTT5=
EXTT6=
EXTT7=
EXTT8=
EXTT9=
PLAYORDER=
